<svg width="32" height="32" viewBox="0 0 32 32" fill="none" xmlns="http://www.w3.org/2000/svg">
<g clip-path="url(#clip0_43_24)">
<path d="M16 32C24.8366 32 32 24.8366 32 16C32 7.16344 24.8366 0 16 0C7.16344 0 0 7.16344 0 16C0 24.8366 7.16344 32 16 32Z" fill="#D6EBFF"/>
<path d="M8.24752 8H8.06931H7.89109V8.17978H7.71287H7.53465L7.17822 8.53933V8.7191V8.89888H7V9.07865V9.25843V9.4382V22.5618V22.7416V22.9213L7.17822 23.1011V23.2809L7.35644 23.4607V23.6404H7.53465L7.71287 23.8202H7.89109V24H8.06931H8.42574H8.60396H9.85149H10.2079H10.3861V23.8202H10.5644L10.9208 23.6404V23.4607V23.2809H11.099V23.1011V22.7416V15.191L11.2772 15.0112H11.4554L11.8119 15.191V15.3708V15.5506H11.9901V15.7303L12.1683 15.9101V16.0899H12.3465V16.2697V16.4494H12.5248V16.6292H12.703V16.809L12.8812 16.9888V17.1685L13.0594 17.3483V17.5281H13.2376V17.7079L13.4158 17.8876V18.0674L13.5941 18.2472V18.427H13.7723V18.6067H13.9505V18.7865V18.9663H14.1287V19.1461L14.3069 19.3258V19.5056H14.4851V19.6854V19.8652H14.6634V20.0449H14.8416V20.2247L15.0198 20.4045L15.198 20.764H15.3762H15.5545V20.9438H15.7327H15.9109H16.0891H16.2673H16.4455V20.764H16.6238L16.9802 20.4045L17.1584 20.2247L17.3366 20.0449V19.8652L17.5149 19.6854V19.5056H17.6931V19.3258V19.1461H17.8713V18.9663H18.0495V18.7865L18.2277 18.6067V18.427L18.4059 18.2472V18.0674H18.5842V17.8876L18.7624 17.7079V17.5281L18.9406 17.3483V17.1685H19.1188V16.9888H19.297V16.809V16.6292H19.4752V16.4494L19.6535 16.2697V16.0899H19.8317V15.9101L20.0099 15.7303V15.5506H20.1881V15.3708V15.191H20.3663L20.5446 15.0112H20.7228V15.191H20.901V15.3708V23.1011V23.2809H21.0792V23.4607L21.2574 23.6404V23.8202H21.4356L21.6139 24H21.7921H21.9703H23.7525H23.9307H24.1089L24.2871 23.8202L24.4653 23.6404H24.6436V23.4607H24.8218V23.2809V23.1011H25V22.9213V22.7416V9.25843V9.07865V8.89888L24.8218 8.7191V8.53933L24.4653 8.17978H24.2871H24.1089V8H23.9307H23.7525H21.7921H21.4356H21.2574V8.17978H21.0792H20.901L20.7228 8.35955H20.5446V8.53933H20.3663L20.1881 8.89888L20.0099 9.07865L19.8317 9.25843L19.6535 9.4382V9.61798H19.4752V9.79775L19.297 9.97753V10.1573H19.1188V10.3371L18.9406 10.5169V10.6966H18.7624V10.8764L18.5842 11.0562V11.236H18.4059V11.4157L18.2277 11.5955V11.7753H18.0495V11.9551L17.8713 12.1348V12.3146H17.6931V12.4944L17.5149 12.6742V12.8539H17.3366V13.0337L17.1584 13.2135V13.3933L16.9802 13.573L16.802 13.7528L16.6238 13.9326L16.4455 14.2921H16.2673H16.0891H15.9109H15.7327L15.5545 14.1124H15.3762L15.198 13.9326V13.7528L15.0198 13.573V13.3933H14.8416V13.2135L14.6634 13.0337V12.8539H14.4851V12.6742L14.3069 12.4944V12.3146H14.1287V12.1348V11.9551H13.9505V11.7753L13.7723 11.5955V11.4157H13.5941V11.236L13.4158 11.0562V10.8764H13.2376V10.6966L13.0594 10.5169V10.3371H12.8812L12.703 10.1573V9.97753L12.5248 9.79775V9.61798H12.3465V9.4382L12.1683 9.25843V9.07865H11.9901V8.89888L11.6337 8.53933L11.4554 8.35955H11.2772V8.17978H11.099H10.9208V8H10.7426H10.5644H8.24752Z" fill="#0A318C"/>
</g>
<defs>
<clipPath id="clip0_43_24">
<rect width="32" height="32" fill="white"/>
</clipPath>
</defs>
</svg>
